<?xml version="1.0" encoding="UTF-8"?>
<svg id="Layer_2" data-name="Layer 2" xmlns="http://www.w3.org/2000/svg" viewBox="0 0 1199.93 340.79">
  <defs>
    <style>
      .cls-1 {
        fill: #d3ab70;
        fill-rule: evenodd;
      }

      .cls-2 {
        fill: #fff;
      }
    </style>
  </defs>
  <g id="Layer_1-2" data-name="Layer 1">
    <g>
      <path class="cls-1" d="M235.9,104.62H52.31v152.98l91.79,52.99,91.79-52.99V104.62ZM275.13,65.38v-26.15H13.08v26.15h262.06ZM288.21,26.15V0H0v26.15h288.21ZM262.05,78.46v194.23l-117.95,68.1-117.95-68.1V78.46h235.89ZM221.15,134.69l-38.73,70.47-14.65,26.65-18.33-33.36,32.98-60.01,2.06-3.75h36.67ZM162.02,242.27l-18.33,33.36-38.73-70.47-38.73-70.47h60.66l-12,21.83,25.64,46.65,21.49,39.09h0Z"/>
      <g>
        <g>
          <path class="cls-2" d="M387.69,185.04c-.77,0-1.35-.39-1.73-1.16-.39-1-.87-2.31-1.45-3.93-.58-1.62-1.1-3.01-1.56-4.16l-21.62-55.74c-.77-2.08-1.81-3.83-3.12-5.26-1.31-1.43-3.01-2.41-5.09-2.95-1.08-.38-1.93-.75-2.54-1.1-.62-.35-.92-.83-.92-1.45,0-.54.29-.91.87-1.1.58-.19,1.29-.29,2.14-.29,1.39,0,2.91.04,4.57.12,1.66.08,3.41.14,5.26.17,1.85.04,3.62.06,5.32.06,1.54,0,3.18-.04,4.92-.12,1.73-.08,3.41-.13,5.03-.17,1.62-.04,2.97-.06,4.05-.06.85,0,1.6.12,2.25.35.65.23.98.58.98,1.04,0,.62-.33,1.14-.98,1.56-.66.42-1.52.71-2.6.87-2.24.31-4.01.81-5.32,1.5-1.31.69-1.97,1.7-1.97,3.01,0,1,.13,1.93.4,2.78.27.85.48,1.54.64,2.08l16.07,43.13c.15.39.35.62.58.69.23.08.46-.19.69-.81l14.92-39.43c1.54-4.01,1.71-7.07.52-9.19-1.2-2.12-3.18-3.33-5.96-3.64-1.08-.15-1.97-.44-2.66-.87-.69-.42-1.04-.94-1.04-1.56,0-.46.33-.81.98-1.04.65-.23,1.45-.35,2.37-.35,1.23,0,2.43.02,3.58.06,1.16.04,2.35.08,3.58.12,1.23.04,2.62.06,4.16.06,2.23,0,4.53-.08,6.88-.23,2.35-.15,4.38-.23,6.07-.23,1,0,1.83.1,2.49.29.65.19.98.6.98,1.21,0,.54-.33.98-.98,1.33-.66.35-1.52.68-2.6.98-2.7.62-4.96,1.87-6.77,3.76-1.81,1.89-3.22,4.1-4.22,6.65l-20.24,49.03c-.54,1.23-1.12,2.62-1.73,4.16-.62,1.54-1.21,3.06-1.79,4.57s-1.18,2.87-1.79,4.11c-.16.38-.37.67-.64.87-.27.19-.6.29-.98.29Z"/>
          <path class="cls-2" d="M422.02,184.39c-.93,0-1.7-.14-2.31-.4-.62-.27-.93-.68-.93-1.22,0-.62.31-1.12.93-1.5.62-.38,1.46-.77,2.55-1.16,2.08-.62,3.97-1.54,5.67-2.78,1.7-1.23,3.08-3.12,4.17-5.67,2.08-4.7,4.01-9.2,5.79-13.48,1.77-4.28,3.47-8.5,5.09-12.67s3.28-8.46,4.98-12.9c1.7-4.43,3.43-9.16,5.21-14.17.69-1.77,1.19-3.26,1.5-4.45.31-1.19.5-2.26.58-3.18,1-.23,1.93-.48,2.78-.75.85-.27,1.77-.67,2.78-1.21.93-.46,1.64-1.14,2.14-2.02.5-.89.91-1.52,1.21-1.91.15-.08.33-.13.52-.17.19-.04.37.1.52.41.23.39.4.81.52,1.27.12.46.25.97.41,1.5,1.77,5.63,3.6,11.36,5.5,17.18,1.89,5.82,3.76,11.51,5.61,17.07,1.85,5.55,3.59,10.7,5.21,15.45s3.01,8.89,4.17,12.44c.85,2.55,1.85,4.49,3.01,5.84,1.16,1.35,2.39,2.35,3.7,3.01,1.31.66,2.74,1.14,4.28,1.45,1.16.23,2.03.58,2.6,1.04.58.46.87,1,.87,1.62,0,.46-.29.79-.87.98-.58.19-1.29.29-2.14.29-1.24,0-2.85-.06-4.86-.17-2.01-.12-4.09-.21-6.25-.29-2.16-.08-4.13-.12-5.9-.12h-4.86c-1.78,0-3.45.04-5.03.12-1.58.08-2.95.12-4.11.12-.93,0-1.68-.13-2.26-.4-.58-.27-.87-.64-.87-1.1,0-.62.35-1.12,1.04-1.5.69-.38,1.5-.65,2.43-.81,2.62-.46,4.53-1.16,5.73-2.08,1.19-.93,1.68-2.16,1.45-3.7-.08-1.31-.35-2.95-.81-4.92-.46-1.97-1-4.05-1.62-6.25-.62-2.2-1.2-4.22-1.74-6.07-.16-.62-.43-1-.81-1.16-.39-.15-1.04-.23-1.97-.23h-21.4c-.39,0-.73.14-1.04.41-.31.27-.62.79-.93,1.56-.23.93-.6,2.1-1.1,3.53-.5,1.43-.98,2.93-1.45,4.51-.46,1.58-.87,3.05-1.22,4.4-.35,1.35-.56,2.33-.64,2.95-.23,1.93.25,3.45,1.45,4.57,1.19,1.12,2.99,1.99,5.38,2.6,2.31.62,3.47,1.39,3.47,2.31,0,.54-.29.91-.87,1.1-.58.19-1.33.29-2.26.29-1.47,0-3.16-.04-5.09-.12-1.93-.08-3.97-.12-6.13-.12-2.47,0-4.86.12-7.17.35s-4.51.35-6.6.35ZM461.7,103.63c-3.47,0-6.4-.73-8.79-2.2-2.39-1.46-4.22-3.2-5.49-5.2-1.27-2-1.91-3.82-1.91-5.43,0-.85.12-1.54.35-2.08.23-.54.54-.81.92-.81.69,0,1.27.27,1.73.81.46.54.89,1.08,1.27,1.62,1.62,1.93,3.37,3.32,5.26,4.16,1.89.85,4.11,1.27,6.65,1.27s4.76-.42,6.65-1.27c1.89-.85,3.64-2.24,5.26-4.16.46-.54.92-1.08,1.39-1.62.46-.54,1-.81,1.62-.81s.98.27,1.1.81c.12.54.17,1.23.17,2.08,0,1.62-.64,3.43-1.91,5.43-1.27,2.01-3.08,3.74-5.43,5.2-2.35,1.46-5.3,2.2-8.85,2.2ZM449.44,150.7h16.88c1.08,0,1.62-.19,1.62-.58,0-.23-.02-.42-.06-.58-.04-.15-.1-.38-.17-.69l-8.56-27.41c-.39-1.23-.69-1.85-.92-1.85-.16,0-.42.58-.81,1.73l-10.06,27.52c-.16.46-.23.77-.23.92,0,.39.21.64.64.75.42.12.98.17,1.68.17Z"/>
          <path class="cls-2" d="M578.12,185.02c-2.72,0-5.15-.28-7.3-.85s-4.08-1.42-5.77-2.55-3.23-2.53-4.59-4.19c-1.74-2.26-3.42-4.45-5.04-6.57-1.62-2.11-3.3-4.51-5.04-7.19-1.74-2.68-3.77-5.94-6.11-9.79-.98-1.89-2.38-3.28-4.19-4.19-1.28-.68-2.59-1.15-3.91-1.42-1.32-.26-2.4-.43-3.23-.51-.53,0-.93.21-1.19.62-.26.42-.4.96-.4,1.64v20.49c0,2.42.6,4.4,1.81,5.94,1.21,1.55,3.28,2.59,6.23,3.11,1.06.23,1.87.49,2.43.79.57.3.85.76.85,1.36,0,.45-.26.79-.79,1.02-.53.23-1.24.34-2.15.34-1.89,0-3.57-.06-5.04-.17s-2.87-.23-4.19-.34c-1.32-.11-2.7-.17-4.13-.17-1.81,0-3.53.06-5.15.17-1.62.11-3.25.23-4.87.34-1.62.11-3.42.17-5.38.17-.83,0-1.53-.1-2.09-.28-.57-.19-.85-.55-.85-1.08,0-.98,1.09-1.7,3.28-2.15,2.87-.53,4.92-1.36,6.17-2.49,1.25-1.13,1.87-3.02,1.87-5.66v-49.13c0-2.57-.15-4.51-.45-5.83-.3-1.32-.92-2.26-1.87-2.83-.94-.57-2.43-1-4.47-1.3-1.21-.15-2.08-.43-2.6-.85-.53-.41-.79-.89-.79-1.41,0-.45.28-.81.85-1.08.57-.26,1.26-.4,2.09-.4,2.19,0,3.89.04,5.09.11,1.21.08,2.36.13,3.45.17,1.09.04,2.47.06,4.13.06,1.51,0,2.87-.06,4.08-.17,1.21-.11,2.57-.23,4.08-.34,1.51-.11,3.43-.17,5.77-.17,8.45,0,14.92,1.53,19.41,4.59,4.49,3.06,6.74,7.68,6.74,13.87,0,3.4-.7,6.3-2.09,8.72-1.4,2.42-3.15,4.41-5.26,6-2.11,1.59-4.23,2.83-6.34,3.74-.3.08-.43.25-.4.51.04.26.13.59.28.96,2.34,3.47,4.59,6.78,6.74,9.91,2.15,3.13,4.45,6.15,6.91,9.06,2.45,2.91,5.26,5.83,8.43,8.77,2.11,1.96,4.32,3.13,6.62,3.51,2.3.38,4.77.57,7.41.57,1.13,0,1.7.53,1.7,1.58,0,1.28-.59,2.28-1.75,3-1.17.72-2.59,1.23-4.25,1.53-1.66.3-3.25.45-4.75.45ZM537.44,144.79c3.31,0,6.15-.75,8.5-2.25,2.35-1.5,4.16-3.51,5.44-6.01,1.27-2.5,1.91-5.22,1.91-8.15,0-3.31-.42-6.24-1.27-8.79-.85-2.54-2.39-4.53-4.63-5.96-2.24-1.42-5.43-2.14-9.6-2.14-2.16,0-3.62.75-4.39,2.25-.77,1.5-1.2,4.34-1.27,8.5-.08,1.85-.14,4.32-.17,7.4-.04,3.08-.06,6.75-.06,10.99,0,1.85.5,3.01,1.5,3.47,1,.46,2.35.69,4.05.69Z"/>
          <path class="cls-2" d="M656.97,183.93c-2.46,0-5.06-.02-7.79-.06-2.73-.04-5.52-.08-8.37-.12-2.85-.04-5.73-.1-8.65-.17-2.92-.08-5.73-.12-8.42-.12-2.46.08-4.94.13-7.44.17-2.5.04-4.98.06-7.44.06l-9.03.12c-.39,0-.68-.35-.87-1.04-.19-.7-.25-1.12-.17-1.28.23-.62.71-1.57,1.45-2.84.73-1.28,1.6-2.63,2.61-4.06,1-1.43,1.89-2.73,2.67-3.89,3.48-5.1,6.8-9.9,9.98-14.39,3.17-4.49,6.24-8.89,9.22-13.23,2.98-4.33,5.99-8.76,9.05-13.28,3.05-4.52,6.28-9.38,9.69-14.56.15-.23.27-.46.35-.7.08-.23.12-.42.12-.58,0-.31-.14-.56-.41-.75-.27-.19-.83-.29-1.68-.29-1.86-.08-4.04-.13-6.55-.17-2.51-.04-5.05-.06-7.6-.06h-6.56c-1.65,0-3.14.07-4.47.21-2.04.07-4.14.79-6.32,2.16-2.18,1.37-3.86,3.39-5.05,6.05-.35.63-.81,1.35-1.37,2.16-.54.78-1.22,1.18-2.02,1.21-.35.01-.7-.13-.92-.41s-.33-.6-.33-.96c0-.42.09-.89.26-1.42.17-.53.33-1,.47-1.42.49-1.05.91-2.26,1.26-3.63.35-1.37.7-2.84,1.05-4.42.35-1.58.56-3.17.63-4.79.07-.84.28-1.4.63-1.68.35-.28.74-.42,1.16-.42s1.02.25,1.79.74c.77.49,1.51.88,2.21,1.16.91.35,2.21.68,3.9,1,1.68.32,3.4.47,5.16.47h14.96c2.08,0,4.25-.02,6.52-.06,2.27-.04,4.58-.08,6.92-.11,2.35-.04,4.65-.08,6.92-.12,2.27-.04,4.33-.1,6.17-.17.46,0,.88.31,1.27.92.38.62.46,1.08.23,1.38l-7.38,10.5c-3.46,4.92-6.69,9.56-9.69,13.9-3,4.35-5.9,8.6-8.71,12.75-2.81,4.15-5.64,8.42-8.48,12.81-2.85,4.38-5.85,9.04-9,13.96-.46.69-.69,1.35-.69,1.96,0,.46.15.87.46,1.21.31.35.73.56,1.27.63,1.46.15,3.23.27,5.31.35,2.08.08,4.15.11,6.23.11,2.77,0,5.48-.08,8.14-.23,2.65-.15,5.21-.42,7.67-.81,5.61-.85,9.81-4.88,12.58-12.12.15-.46.46-.92.92-1.38.46-.46.96-.69,1.5-.69.85,0,1.27.5,1.27,1.5,0,.54-.15,1.54-.46,3-.31,1.46-.67,3.1-1.1,4.9-.42,1.81-.89,3.52-1.38,5.13-.5,1.62-.91,2.88-1.21,3.81-.23.54-.52,1.02-.87,1.44-.35.42-.87.63-1.56.63Z"/>
          <path class="cls-2" d="M673.99,184.39c-.93,0-1.7-.14-2.31-.4-.62-.27-.93-.68-.93-1.22,0-.62.31-1.12.93-1.5.62-.38,1.46-.77,2.55-1.16,2.08-.62,3.97-1.54,5.67-2.78,1.7-1.23,3.08-3.12,4.17-5.67,2.08-4.7,4.01-9.2,5.79-13.48,1.77-4.28,3.47-8.5,5.09-12.67s3.28-8.46,4.98-12.9c1.7-4.43,3.43-9.16,5.21-14.17.69-1.77,1.19-3.26,1.5-4.45.31-1.19.5-2.26.58-3.18,1-.23,1.93-.48,2.78-.75.85-.27,1.77-.67,2.78-1.21.93-.46,1.64-1.14,2.14-2.02.5-.89.91-1.52,1.21-1.91.15-.08.33-.13.52-.17.19-.04.37.1.52.41.23.39.4.81.52,1.27.12.46.25.97.41,1.5,1.77,5.63,3.6,11.36,5.5,17.18,1.89,5.82,3.76,11.51,5.61,17.07,1.85,5.55,3.59,10.7,5.21,15.45s3.01,8.89,4.17,12.44c.85,2.55,1.85,4.49,3.01,5.84,1.16,1.35,2.39,2.35,3.7,3.01,1.31.66,2.74,1.14,4.28,1.45,1.16.23,2.03.58,2.6,1.04.58.46.87,1,.87,1.62,0,.46-.29.79-.87.98-.58.19-1.29.29-2.14.29-1.24,0-2.85-.06-4.86-.17-2.01-.12-4.09-.21-6.25-.29-2.16-.08-4.13-.12-5.9-.12h-4.86c-1.78,0-3.45.04-5.03.12-1.58.08-2.95.12-4.11.12-.93,0-1.68-.13-2.26-.4-.58-.27-.87-.64-.87-1.1,0-.62.35-1.12,1.04-1.5.69-.38,1.5-.65,2.43-.81,2.62-.46,4.53-1.16,5.73-2.08,1.19-.93,1.68-2.16,1.45-3.7-.08-1.31-.35-2.95-.81-4.92-.46-1.97-1-4.05-1.62-6.25-.62-2.2-1.2-4.22-1.74-6.07-.16-.62-.43-1-.81-1.16-.39-.15-1.04-.23-1.97-.23h-21.4c-.39,0-.73.14-1.04.41-.31.27-.62.79-.93,1.56-.23.93-.6,2.1-1.1,3.53-.5,1.43-.98,2.93-1.45,4.51-.46,1.58-.87,3.05-1.22,4.4-.35,1.35-.56,2.33-.64,2.95-.23,1.93.25,3.45,1.45,4.57,1.19,1.12,2.99,1.99,5.38,2.6,2.31.62,3.47,1.39,3.47,2.31,0,.54-.29.91-.87,1.1-.58.19-1.33.29-2.26.29-1.47,0-3.16-.04-5.09-.12-1.93-.08-3.97-.12-6.13-.12-2.47,0-4.86.12-7.17.35s-4.51.35-6.6.35ZM701.42,150.7h16.88c1.08,0,1.62-.19,1.62-.58,0-.23-.02-.42-.06-.58-.04-.15-.1-.38-.17-.69l-8.56-27.41c-.39-1.23-.69-1.85-.92-1.85-.16,0-.42.58-.81,1.73l-10.06,27.52c-.16.46-.23.77-.23.92,0,.39.21.64.64.75.42.12.98.17,1.68.17Z"/>
          <path class="cls-2" d="M830.12,185.02c-2.72,0-5.15-.28-7.3-.85s-4.08-1.42-5.77-2.55-3.23-2.53-4.59-4.19c-1.74-2.26-3.42-4.45-5.04-6.57-1.62-2.11-3.3-4.51-5.04-7.19-1.74-2.68-3.77-5.94-6.11-9.79-.98-1.89-2.38-3.28-4.19-4.19-1.28-.68-2.59-1.15-3.91-1.42-1.32-.26-2.4-.43-3.23-.51-.53,0-.93.21-1.19.62-.26.42-.4.96-.4,1.64v20.49c0,2.42.6,4.4,1.81,5.94,1.21,1.55,3.28,2.59,6.23,3.11,1.06.23,1.87.49,2.43.79.57.3.85.76.85,1.36,0,.45-.26.79-.79,1.02-.53.23-1.24.34-2.15.34-1.89,0-3.57-.06-5.04-.17s-2.87-.23-4.19-.34c-1.32-.11-2.7-.17-4.13-.17-1.81,0-3.53.06-5.15.17-1.62.11-3.25.23-4.87.34-1.62.11-3.42.17-5.38.17-.83,0-1.53-.1-2.09-.28-.57-.19-.85-.55-.85-1.08,0-.98,1.09-1.7,3.28-2.15,2.87-.53,4.92-1.36,6.17-2.49,1.25-1.13,1.87-3.02,1.87-5.66v-49.13c0-2.57-.15-4.51-.45-5.83-.3-1.32-.92-2.26-1.87-2.83-.94-.57-2.43-1-4.47-1.3-1.21-.15-2.08-.43-2.6-.85-.53-.41-.79-.89-.79-1.41,0-.45.28-.81.85-1.08.57-.26,1.26-.4,2.09-.4,2.19,0,3.89.04,5.09.11,1.21.08,2.36.13,3.45.17,1.09.04,2.47.06,4.13.06,1.51,0,2.87-.06,4.08-.17,1.21-.11,2.57-.23,4.08-.34,1.51-.11,3.43-.17,5.77-.17,8.45,0,14.92,1.53,19.41,4.59,4.49,3.06,6.74,7.68,6.74,13.87,0,3.4-.7,6.3-2.09,8.72-1.4,2.42-3.15,4.41-5.26,6-2.11,1.59-4.23,2.83-6.34,3.74-.3.08-.43.25-.4.51.04.26.13.59.28.96,2.34,3.47,4.59,6.78,6.74,9.91,2.15,3.13,4.45,6.15,6.91,9.06,2.45,2.91,5.26,5.83,8.43,8.77,2.11,1.96,4.32,3.13,6.62,3.51,2.3.38,4.77.57,7.41.57,1.13,0,1.7.53,1.7,1.58,0,1.28-.59,2.28-1.75,3-1.17.72-2.59,1.23-4.25,1.53-1.66.3-3.25.45-4.75.45ZM789.42,144.79c3.31,0,6.15-.75,8.5-2.25,2.35-1.5,4.16-3.51,5.44-6.01,1.27-2.5,1.91-5.22,1.91-8.15,0-3.31-.42-6.24-1.27-8.79-.85-2.54-2.39-4.53-4.63-5.96-2.24-1.42-5.43-2.14-9.6-2.14-2.16,0-3.62.75-4.39,2.25-.77,1.5-1.2,4.34-1.27,8.5-.08,1.85-.14,4.32-.17,7.4-.04,3.08-.06,6.75-.06,10.99,0,1.85.5,3.01,1.5,3.47,1,.46,2.35.69,4.05.69Z"/>
          <path class="cls-2" d="M890.11,185.11c-6.95,0-12.78-1.24-17.49-3.71-4.71-2.47-8.27-5.97-10.66-10.49-2.39-4.52-3.59-9.79-3.59-15.81v-34.78c0-2.47-.5-4.41-1.51-5.83-1.01-1.42-2.26-2.28-3.76-2.58-2.39-.67-3.59-1.49-3.59-2.47,0-.52.3-.9.9-1.12.6-.22,1.35-.34,2.24-.34,1.94,0,3.93.08,5.94.22,2.02.15,4.07.22,6.17.22,1.87,0,3.81-.06,5.83-.17,2.02-.11,3.81-.17,5.38-.17.97,0,1.74.11,2.3.34s.84.6.84,1.12c0,.6-.39,1.07-1.18,1.4-.79.34-1.81.73-3.08,1.18-.97.38-1.96,1.25-2.97,2.64-1.01,1.38-1.51,3.27-1.51,5.66v31.77c0,5.92.97,10.79,2.92,14.61,1.95,3.82,4.64,6.62,8.07,8.42,3.43,1.79,7.28,2.69,11.57,2.69,7.71,0,13.38-2.55,17.01-7.66,3.62-5.1,5.43-12.14,5.43-21.1v-6.57c0-2.7-.02-5.56-.06-8.57-.04-3.01-.1-5.87-.17-8.57-.08-2.55-.29-4.73-.64-6.55-.35-1.81-.91-3.34-1.68-4.58-.77-1.23-1.78-2.05-3.01-2.43-.77-.31-1.64-.65-2.61-1.04-.97-.39-1.45-.89-1.45-1.51,0-.46.31-.81.93-1.04.62-.23,1.43-.35,2.43-.35,2.16,0,3.86.04,5.1.12,1.23.08,2.74.12,4.52.12,1.31,0,2.49-.04,3.53-.12,1.04-.08,2.07-.15,3.07-.23,1-.08,2.04-.12,3.13-.12.93,0,1.7.12,2.32.35.62.23.93.62.93,1.16,0,1-1.2,1.78-3.59,2.32-2.24.54-3.81,1.58-4.69,3.13-.89,1.55-1.41,3.59-1.56,6.14-.39,6.33-.62,12.15-.69,17.44-.08,5.29-.19,10.56-.35,15.81-.08,6.02-1.49,11.39-4.23,16.1-2.74,4.71-6.39,8.38-10.95,11.01-4.56,2.63-9.73,3.94-15.52,3.94Z"/>
          <path class="cls-2" d="M974.65,183.08c-.83,0-1.53-.1-2.09-.28-.57-.19-.85-.55-.85-1.08,0-.98,1.09-1.7,3.28-2.15,2.87-.53,4.98-1.36,6.34-2.49s2.04-2.98,2.04-5.55v-51.17c0-2.56-.53-4.39-1.59-5.49-1.06-1.09-3.02-1.94-5.89-2.55-2.19-.45-3.28-1.21-3.28-2.26,0-.53.26-.91.79-1.13.53-.23,1.21-.34,2.04-.34,1.96,0,3.72.04,5.26.11,1.55.08,3.04.15,4.47.23,1.43.08,2.98.11,4.64.11s3.07-.02,4.47-.06c1.4-.04,2.83-.09,4.3-.17,1.47-.07,3.15-.11,5.04-.11.91,0,1.62.1,2.15.28.53.19.79.55.79,1.08,0,.61-.28,1.08-.85,1.41s-1.38.62-2.43.85c-2.94.68-5,1.55-6.17,2.6-1.17,1.06-1.75,2.87-1.75,5.43v51.17c0,2.49.72,4.3,2.15,5.43,1.43,1.13,3.55,2,6.34,2.6,1.13.23,1.96.49,2.49.79.53.3.79.76.79,1.36,0,.45-.25.79-.74,1.02-.49.23-1.19.34-2.09.34-1.89,0-3.62-.06-5.21-.17-1.59-.11-3.11-.21-4.59-.28-1.47-.07-3.04-.11-4.7-.11-1.81,0-3.49.04-5.04.11-1.55.07-3.15.17-4.81.28-1.66.11-3.43.17-5.32.17Z"/>
          <path class="cls-2" d="M1058.39,185.04c-5.17,0-10.08-.91-14.74-2.72-4.67-1.81-8.81-4.39-12.43-7.75-3.62-3.35-6.5-7.36-8.61-12.03-2.12-4.66-3.18-9.85-3.18-15.55,0-5.24.87-10.27,2.6-15.09,1.74-4.82,4.28-9.12,7.63-12.89,3.35-3.78,7.53-6.78,12.55-9.02,5.01-2.23,10.75-3.35,17.23-3.35,5.24,0,10.19.91,14.86,2.72,4.66,1.81,8.81,4.39,12.43,7.75,3.62,3.35,6.49,7.36,8.62,12.03,2.12,4.67,3.18,9.85,3.18,15.55,0,5.17-.87,10.18-2.6,15.03-1.73,4.86-4.28,9.18-7.63,12.95-3.35,3.78-7.54,6.78-12.55,9.02-5.01,2.24-10.79,3.35-17.35,3.35ZM1060.24,180.18c5.4,0,9.89-1.25,13.47-3.76,3.58-2.5,6.28-5.99,8.09-10.46,1.81-4.47,2.72-9.64,2.72-15.5,0-5.16-.56-10.06-1.68-14.69-1.12-4.63-2.79-8.77-5.03-12.43-2.24-3.66-5.05-6.51-8.44-8.56-3.39-2.04-7.36-3.06-11.91-3.06-5.24,0-9.66,1.23-13.24,3.7-3.58,2.47-6.28,5.9-8.09,10.29-1.81,4.39-2.72,9.52-2.72,15.38,0,5.24.54,10.18,1.62,14.8,1.08,4.62,2.74,8.77,4.97,12.43,2.23,3.66,5.03,6.55,8.38,8.67,3.35,2.12,7.3,3.18,11.85,3.18Z"/>
          <path class="cls-2" d="M1186.52,185.5c-.77,0-2.22-.6-4.34-1.79-2.12-1.19-4.18-3.14-6.19-5.84-.85-.92-2.14-2.41-3.87-4.45-1.73-2.04-3.78-4.41-6.13-7.11-2.35-2.7-4.86-5.59-7.52-8.67-2.66-3.08-5.32-6.15-7.98-9.19-2.66-3.04-5.17-5.92-7.52-8.62-2.35-2.7-4.43-5.09-6.24-7.17-1.81-2.08-3.18-3.58-4.11-4.51-.39-.54-.75-.96-1.1-1.27-.35-.31-.68-.46-.98-.46s-.54.29-.69.87c-.16.58-.23,1.1-.23,1.56-.08,3.7-.12,7.98-.12,12.84s-.02,9.85-.06,14.97c-.04,5.13-.06,9.93-.06,14.4,0,2.24.62,4.18,1.85,5.84,1.23,1.66,3.31,2.79,6.25,3.41,1.08.23,1.95.5,2.6.81.65.31.98.77.98,1.39,0,.46-.31.81-.92,1.04-.62.23-1.39.35-2.31.35-2.08,0-3.68-.06-4.8-.17-1.12-.12-2.14-.19-3.06-.23-.93-.04-2.16-.06-3.7-.06s-2.72.04-3.76.12c-1.04.08-2.06.15-3.06.23-1,.08-2.24.12-3.7.12-.85,0-1.6-.1-2.25-.29-.66-.19-.98-.56-.98-1.1s.31-.98.93-1.33c.62-.35,1.5-.67,2.66-.98,2.08-.62,3.62-1.75,4.63-3.41,1-1.66,1.58-3.64,1.73-5.96.31-2.93.64-6.78.98-11.56.35-4.78.64-10.14.87-16.07.23-5.94.35-12.06.35-18.39,0-4.08-1.04-7.01-3.12-8.79-2.08-1.77-4.74-3.2-7.98-4.28-.39-.15-1.06-.46-2.02-.93-.96-.46-1.45-1.04-1.45-1.73s.35-1.16,1.04-1.39c.69-.23,1.27-.35,1.73-.35,2,.08,3.76.14,5.26.17,1.5.04,2.95.1,4.34.17,1.39.08,2.85.14,4.39.17,1.54.04,3.35.06,5.43.06.69,0,1.23.17,1.62.52.38.35.73.75,1.04,1.21.85,1,2.18,2.58,3.99,4.74,1.81,2.16,3.93,4.7,6.36,7.63,2.43,2.93,5.03,6.03,7.8,9.31,2.78,3.28,5.55,6.57,8.33,9.89,2.78,3.32,5.4,6.44,7.86,9.37,2.47,2.93,4.61,5.45,6.42,7.57,1.81,2.12,3.1,3.64,3.87,4.57.31.31.71.73,1.21,1.27.5.54.94.81,1.33.81.69,0,1.08-.73,1.24-2.2v-6.94c-.09-3.08-.07-6.67-.03-10.75.04-4.08.06-8.38.06-12.89s-.04-9-.12-13.47c-.08-1.7-.89-3.14-2.43-4.34-1.54-1.19-3.2-1.98-4.97-2.37-1.08-.15-2.08-.42-3.01-.81-.92-.38-1.39-.89-1.39-1.5,0-.46.46-.81,1.39-1.04s1.81-.35,2.66-.79h8.21c1.77.44,3.2.42,4.28.38,1.08-.04,2.25-.1,3.53-.17,1.27-.08,3.02-.12,5.26-.12.92,0,1.68.12,2.25.35s.87.62.87,1.16c0,1.08-1.2,1.85-3.58,2.31-2.78.54-4.67,1.25-5.67,2.14-1,.89-1.54,2.33-1.62,4.34,0,1.23-.04,3.26-.12,6.07-.08,2.82-.14,6.11-.17,9.89-.04,3.78-.1,7.75-.17,11.91-.08,4.16-.12,8.25-.23,12.26v10.87c.12,1.85.19,3.64.35,5.38.15,1.73.29,3.24.4,4.51.12,1.27.17,2.22.17,2.83,0,1.47-.27,2.45-.81,2.95-.54.5-1.2.75-1.97.75Z"/>
        </g>
        <g>
          <path class="cls-2" d="M438.09,257.38c-3.11,0-5.99-.53-8.64-1.58-2.65-1.06-4.95-2.54-6.9-4.45-1.95-1.91-3.47-4.15-4.54-6.72-1.08-2.57-1.61-5.39-1.61-8.46s.54-5.89,1.61-8.46,2.6-4.81,4.57-6.72c1.97-1.91,4.27-3.4,6.9-4.45s5.5-1.58,8.61-1.58c2.95,0,5.71.48,8.28,1.43s4.77,2.41,6.6,4.36l-1.91,1.97c-1.79-1.75-3.78-3.02-5.95-3.8-2.17-.78-4.47-1.17-6.9-1.17-2.67,0-5.15.46-7.44,1.37-2.29.92-4.28,2.21-5.98,3.89-1.69,1.67-3.01,3.63-3.95,5.86-.94,2.23-1.4,4.66-1.4,7.29s.47,5.06,1.4,7.29c.94,2.23,2.25,4.18,3.95,5.86,1.69,1.67,3.68,2.97,5.98,3.89,2.29.92,4.77,1.37,7.44,1.37,2.43,0,4.73-.39,6.9-1.17,2.17-.78,4.15-2.06,5.95-3.86l1.91,1.97c-1.83,1.95-4.03,3.42-6.6,4.39-2.57.98-5.33,1.46-8.28,1.46Z"/>
          <path class="cls-2" d="M469.33,256.7l19.32-42h3.06l19.32,42h-3.33l-18.2-40h1.32l-18.14,40h-3.33ZM476.47,245.7l1.02-3h25.04l1.02,3h-27.08Z"/>
          <path class="cls-2" d="M533.37,256.7v-42h17.52c4.52,0,8.06.92,10.62,2.76,2.56,1.84,3.84,4.5,3.84,7.98,0,2.28-.54,4.2-1.62,5.76-1.08,1.56-2.57,2.73-4.47,3.51s-4.03,1.17-6.39,1.17l1.08-1.2c2.88,0,5.34.42,7.38,1.26s3.59,2.06,4.65,3.66c1.06,1.6,1.59,3.6,1.59,6,0,3.52-1.28,6.25-3.84,8.19s-6.44,2.91-11.64,2.91h-18.72ZM536.37,254.7h15.77c4.02-.24,7.09-.93,9.21-2.31,2.11-1.37,3.17-3.58,3.17-6.6s-1.06-5.17-3.17-6.54c-2.11-1.38-5.18-2.06-9.21-1.54h-16.77v-3h15.46c3.62-.15,6.43-.84,8.43-2.24,1.99-1.39,2.99-3.49,2.99-6.28s-1-4.82-2.99-6.22c-1.99-1.39-4.8-2.09-8.43-2.27h-14.46v37Z"/>
          <path class="cls-2" d="M593.37,256.7v-42h3v42h-3Z"/>
          <path class="cls-2" d="M626.37,256.7v-41h2.57l29.81,38h-1.37v-39h3v42h-2.95l-29.41-38h1.35v38h-3Z"/>
          <path class="cls-2" d="M689.37,256.7v-41h28v2h-25v36h26v3h-29ZM692.37,237.7v-3h23v3h-23Z"/>
          <path class="cls-2" d="M752.37,256.7v-39h-15v-3h33v3h-15v39h-3Z"/>
          <path class="cls-2" d="M816.3,256.7l19.32-42h3.06l19.32,42h-3.33l-18.2-40h1.32l-18.14,40h-3.33ZM823.44,245.7l1.02-3h25.04l1.02,3h-27.08Z"/>
          <path class="cls-2" d="M890.01,256.7l-18.72-42h3l18.26,41h-1.9l18.32-41h2.82l-18.72,42h-3.06Z"/>
          <path class="cls-2" d="M950.81,257.38c-3.11,0-5.99-.53-8.64-1.58-2.65-1.06-4.96-2.55-6.93-4.48s-3.5-4.18-4.57-6.75c-1.08-2.57-1.61-5.37-1.61-8.4s.54-5.83,1.61-8.4c1.08-2.57,2.6-4.82,4.57-6.75,1.97-1.93,4.28-3.43,6.93-4.48,2.65-1.06,5.53-1.58,8.64-1.58s5.99.53,8.64,1.58c2.65,1.06,4.95,2.54,6.9,4.45,1.95,1.91,3.48,4.15,4.57,6.72,1.1,2.57,1.64,5.39,1.64,8.46s-.55,5.89-1.64,8.46c-1.1,2.57-2.62,4.81-4.57,6.72-1.95,1.91-4.25,3.4-6.9,4.45-2.65,1.06-5.53,1.58-8.64,1.58ZM950.81,254.57c2.67,0,5.14-.46,7.41-1.37s4.24-2.21,5.92-3.89,2.98-3.62,3.92-5.86c.94-2.23,1.41-4.66,1.41-7.29s-.47-5.11-1.41-7.32c-.94-2.21-2.24-4.15-3.92-5.83-1.67-1.67-3.65-2.97-5.92-3.89-2.27-.92-4.74-1.37-7.41-1.37s-5.14.46-7.41,1.37c-2.27.92-4.25,2.21-5.95,3.89-1.69,1.67-3.01,3.62-3.95,5.83-.94,2.21-1.4,4.65-1.4,7.32s.47,5.06,1.4,7.29c.94,2.23,2.25,4.18,3.95,5.86,1.69,1.67,3.68,2.97,5.95,3.89s4.74,1.37,7.41,1.37Z"/>
          <path class="cls-2" d="M1015.78,257.38c-3.11,0-5.99-.53-8.64-1.58-2.65-1.06-4.95-2.54-6.9-4.45-1.95-1.91-3.47-4.15-4.54-6.72-1.08-2.57-1.61-5.39-1.61-8.46s.54-5.89,1.61-8.46,2.6-4.81,4.57-6.72c1.97-1.91,4.27-3.4,6.9-4.45s5.5-1.58,8.61-1.58c2.95,0,5.71.48,8.28,1.43s4.77,2.41,6.6,4.36l-1.91,1.97c-1.79-1.75-3.78-3.02-5.95-3.8-2.17-.78-4.47-1.17-6.9-1.17-2.67,0-5.15.46-7.44,1.37-2.29.92-4.28,2.21-5.98,3.89-1.69,1.67-3.01,3.63-3.95,5.86-.94,2.23-1.4,4.66-1.4,7.29s.47,5.06,1.4,7.29c.94,2.23,2.25,4.18,3.95,5.86,1.69,1.67,3.68,2.97,5.98,3.89,2.29.92,4.77,1.37,7.44,1.37,2.43,0,4.73-.39,6.9-1.17,2.17-.78,4.15-2.06,5.95-3.86l1.91,1.97c-1.83,1.95-4.03,3.42-6.6,4.39-2.57.98-5.33,1.46-8.28,1.46Z"/>
          <path class="cls-2" d="M1047.02,256.7l19.32-42h3.06l19.32,42h-3.33l-18.2-40h1.32l-18.14,40h-3.33ZM1054.15,245.7l1.02-3h25.04l1.02,3h-27.08Z"/>
          <path class="cls-2" d="M1117.37,256.7v-39h-15v-3h33v3h-15v39h-3Z"/>
        </g>
        <circle class="cls-2" cx="374.37" cy="237.7" r="8"/>
        <circle class="cls-2" cx="1182.37" cy="237.7" r="8"/>
      </g>
    </g>
  </g>
</svg>